<svg id="Layer_1" data-name="Layer 1" xmlns="http://www.w3.org/2000/svg" viewBox="0 0 150 150">
  <defs>
    <style>
      .cls-1 {
        fill: #fff;
      }
    </style>
  </defs>
  <title>gd_icons</title>
  <rect width="150" height="150"/>
  <path class="cls-1" d="M49.9,48.2Zm0,0Zm0,0Zm0,0Zm0,0Z"/>
  <path class="cls-1" d="M106,116.6v8.6a2.9,2.9,0,0,1-3,3H47a2.9,2.9,0,0,1-3-3v-8.6a9.2,9.2,0,0,1,2-5.2A90.1,90.1,0,0,0,60.8,86.5c.5-1.3,1-2.6,1.3-3.8V69.1h-6a2.9,2.9,0,0,1-3-3V57.5a2.9,2.9,0,0,1,3-3H94a2.9,2.9,0,0,1,3,3v8.6a2.9,2.9,0,0,1-3,3H88V82.5c.4,1.3.8,2.7,1.3,4a88.3,88.3,0,0,0,14.8,24.8A10,10,0,0,1,106,116.6ZM61.1,46.3a4.2,4.2,0,0,0,3.8,2.9H84.8a4.2,4.2,0,0,0,3.8-2.9l6.4-22.5A2.1,2.1,0,0,0,92.9,21h-3l-3,9a3.1,3.1,0,0,1-3.7,2.1l-1.9-.5c-1.5-.5-2.1-1.8-2.1-3.7l.4-4.3H70.2l.4,4.3c0,1.7-.5,3.2-2.1,3.7l-1.8.5A3,3,0,0,1,62.9,30l-3-9H57a2.1,2.1,0,0,0-2.1,2.9Z"/>
</svg>
