<svg id="Layer_1" data-name="Layer 1" xmlns="http://www.w3.org/2000/svg" viewBox="0 0 150 150">
  <defs>
    <style>
      .cls-1 {
        fill: #fff;
      }
    </style>
  </defs>
  <title>gd_icons</title>
  <rect width="150" height="150"/>
  <path class="cls-1" d="M49.9,48.2Zm0,0Zm0,0Zm0,0Zm0,0Z"/>
  <g>
    <path class="cls-1" d="M94.1,45.6H56C37.4,64.1,14.2,93.2,26.1,114.4c9.4,16.8,30.7,21.1,51.4,20.8s40.7-5.2,47.6-20.8C133.8,94.4,111.4,64.6,94.1,45.6ZM78.5,110.4v6H72.8v-5.6a23.5,23.5,0,0,1-10-2.5l1.8-6.9a20.7,20.7,0,0,0,9.7,2.6c3.3,0,5.6-1.3,5.6-3.6s-1.9-3.6-6.2-5.1c-6.3-2.1-10.5-5-10.5-10.7s3.6-9.2,9.9-10.4V68.6h5.7v5.2a21.1,21.1,0,0,1,8.5,1.9l-1.7,6.6a19.4,19.4,0,0,0-8.4-2c-3.8,0-5,1.6-5,3.3s2,3.2,7,5c7,2.5,9.8,5.7,9.8,11S85.3,109.3,78.5,110.4Z"/>
    <path class="cls-1" d="M105.3,16.9c-5.2-3.2-11.6,8.2-16.2,8.1S80.9,13.6,75.6,13.7,68.3,24.2,64.1,25.1,49.4,13,45.2,17.6s7,18.6,11.1,24.1H93.9C98.2,35.9,109.6,19.5,105.3,16.9Z"/>
  </g>
</svg>
