<svg id="Layer_1" data-name="Layer 1" xmlns="http://www.w3.org/2000/svg" viewBox="0 0 150 150">
  <defs>
    <style>
      .cls-1 {
        fill: #fff;
      }
    </style>
  </defs>
  <title>gd_icons</title>
  <rect width="150" height="150"/>
  <path class="cls-1" d="M49.9,48.2Zm0,0Zm0,0Zm0,0Zm0,0Z"/>
  <path class="cls-1" d="M48.8,32.5C55,29,64.5,26.1,68.2,33.7c1.4,3,.5,6.6-.9,9.6a11.3,11.3,0,0,0-.8,3.1,16.1,16.1,0,0,0-.1,5c.4,2.7,2.2,5.2,5,5.7s5.9,0,8.9-.5a18.8,18.8,0,0,0,4.6-1.3A8.4,8.4,0,0,0,89.9,48c.1-2.9-1.4-5.4-2.7-8a4.6,4.6,0,0,1,.2-4.8,8.9,8.9,0,0,1,7.7-3.4A32,32,0,0,1,109.3,36c-3,8-4,15.3-3.1,21.7a7.1,7.1,0,0,0,1.5,3.6c1.6,2,4.2,1.6,6.2.4,3.9-2.4,7.9-4.5,12.5-3.9s7.1,3.5,8.3,9.2.1,9.3-3.5,12.4-6.5,2.8-10.2,2.1-4.8-1.8-7.3-2.6a6.8,6.8,0,0,0-6.9,1.2c-2.4,2.3-3,5.7-2.6,8.8s1.7,6.8,2.9,10.1c2,5.5,5.2,10.3,7.3,15.7a10.9,10.9,0,0,1,.6,6.5A63.1,63.1,0,0,1,104,121c-5-.4-10-.5-14.5-3.5a7.3,7.3,0,0,1-2.8-5.6c-.2-2.5,1.2-4.5,2.1-6.6a11.8,11.8,0,0,0,.7-2.7,8,8,0,0,0-.1-3.8c-1.3-4.8-5.5-6.8-11.5-6.5s-9.9,4.3-9.2,9.6,3.4,7.1,3,11.2a4.2,4.2,0,0,1-.9,2.1c-1.2,1.5-3.8,2.4-7.1,2.8-4.9.6-13.3,1-19.7-2-.7-.3,3.9-17-1.9-28.1-4-7.7-12.5-1.7-19.5-3.6-2.7-.7-6.3-3.6-7.3-9.6s-.2-10.2,4.1-13.2,11-.9,15.1,2.8a7.6,7.6,0,0,0,5.9,2.2,6.3,6.3,0,0,0,4.4-2.1c3.3-4,2.6-8.8-4.9-27C39.8,37.1,45.8,34.2,48.8,32.5Z"/>
</svg>
