<svg id="Layer_1" data-name="Layer 1" xmlns="http://www.w3.org/2000/svg" viewBox="0 0 150 150">
  <defs>
    <style>
      .cls-1 {
        fill: #fff;
      }
    </style>
  </defs>
  <title>gd_icons</title>
  <rect width="150" height="150"/>
  <path class="cls-1" d="M49.9,48.2Zm0,0Zm0,0Zm0,0Zm0,0Z"/>
  <path class="cls-1" d="M128.8,58.2A11.2,11.2,0,0,0,117.6,47H32.2A11.2,11.2,0,0,0,21,58.2h0V92a11.2,11.2,0,0,0,11.2,11.2h85.6A11.2,11.2,0,0,0,129,92h0V58.2ZM54.2,76H45.9v8.3H41.7V76H33.4V71.9h8.3V63.6h4.1v8.3h8.3ZM87.3,89.5a4.1,4.1,0,1,1,4.1-4.1A4.1,4.1,0,0,1,87.3,89.5Zm0-16.6a4.1,4.1,0,1,1,4.1-4.1A4.1,4.1,0,0,1,87.3,72.9Zm20.7,8.3a4.1,4.1,0,1,1,4.1-4.1A4.1,4.1,0,0,1,108.1,81.2Zm0-16.6a4.1,4.1,0,1,1,4.1-4.1A4.1,4.1,0,0,1,108.1,64.6Z"/>
</svg>
