<svg xmlns="http://www.w3.org/2000/svg" data-name="Layer 1" viewBox="0 0 150 150"><defs><style>  
      .cls-1 {
        fill: #2e53af;
      }

      .cls-2 {
        fill: #fff;
      }
    </style></defs><title>  gd_icons</title><rect class="cls-1" width="150" height="150"/><path class="cls-2" d="M139 97.5c0 11-29 19.3-64.5 19.3S10 108.5 10 97.5c0-5.2 7.7-10.3 19.4-13.5v0.6h0c0 3.9 11.6 12.9 45.2 12.9s45.2-9 45.2-12.9V84C131.3 87.2 139 92.3 139 97.5ZM118.4 76.9c0-18.1-14.8-43.9-24.5-43.9-7.7 0-11 6.5-19.4 6.5S62.9 33 55.1 33c-9.7 0-24.5 25.8-24.5 43.9 3.9 4.5 16.8 10.3 43.9 10.3S114.5 81.4 118.4 76.9Z"/></svg>