<svg id="Layer_1" data-name="Layer 1" xmlns="http://www.w3.org/2000/svg" viewBox="0 0 150 150">
  <defs>
    <style>
      .cls-1 {
        fill: #fff;
      }
    </style>
  </defs>
  <title>gd_icons</title>
  <rect width="150" height="150"/>
  <path class="cls-1" d="M49.9,48.2Zm0,0Zm0,0Zm0,0Zm0,0Z"/>
  <path class="cls-1" d="M131.3,38.7,107.9,20a4.7,4.7,0,0,0-7.6,3.6V38A32.7,32.7,0,0,0,77,53.6,32.7,32.7,0,0,0,53.7,38V23.7A4.7,4.7,0,0,0,46.1,20L22.8,38.7a4.7,4.7,0,0,0,0,7.3L46.1,64.6A4.7,4.7,0,0,0,53.7,61V47.5A23.4,23.4,0,0,1,72.3,70.3v56a4.7,4.7,0,1,0,9.3,0v-56a23.4,23.4,0,0,1,18.7-22.9V61a4.7,4.7,0,0,0,7.6,3.6L131.3,46a4.7,4.7,0,0,0,0-7.3"/>
</svg>
