<svg id="Layer_1" data-name="Layer 1" xmlns="http://www.w3.org/2000/svg" viewBox="0 0 150 150">
  <defs>
    <style>
      .cls-1 {
        fill: #fff;
      }
    </style>
  </defs>
  <title>gd_icons</title>
  <rect width="150" height="150"/>
  <path class="cls-1" d="M49.9,48.2Zm0,0Zm0,0Zm0,0Zm0,0Z"/>
  <path class="cls-1" d="M67.5,25,63.9,37.3a39.6,39.6,0,0,0-9,3.8L43.8,34.8l-10,10L40,55.9a39.6,39.6,0,0,0-3.8,9L24,68.5V82.5l12.3,3.5a39.6,39.6,0,0,0,3.8,9l-6.2,11.1,10,10L54.9,110a39.6,39.6,0,0,0,9,3.8L67.5,126H81.5l3.5-12.3a39.6,39.6,0,0,0,9-3.8l11.1,6.2,10-10L109,95.1a39.6,39.6,0,0,0,3.8-9L125,82.5V68.5l-12.3-3.5a39.6,39.6,0,0,0-3.8-9l6.2-11.1-10-10L94.1,41a39.6,39.6,0,0,0-9-3.8L81.5,25Zm7,29.1A21.4,21.4,0,1,1,53.1,75.5,21.4,21.4,0,0,1,74.5,54.1Zm0,7.8A13.6,13.6,0,1,0,88.1,75.5,13.5,13.5,0,0,0,74.5,61.9Z"/>
</svg>
