<svg id="Layer_1" data-name="Layer 1" xmlns="http://www.w3.org/2000/svg" viewBox="0 0 150 150">
  <defs>
    <style>
      .cls-1 {
        fill: #fff;
      }
    </style>
  </defs>
  <title>gd_icons</title>
  <rect width="150" height="150"/>
  <path class="cls-1" d="M49.9,48.2Zm0,0Zm0,0Zm0,0Zm0,0Z"/>
  <g>
    <path class="cls-1" d="M81.7,111.4c-8-.6-14.6-1.9-19.8-3.9l-1.5,14.2c5.2,3,13.9,7.1,22.4,7.7,6,.4,19.7,1.9,29.9-1.9l-1.5-19C101.6,112.3,87.4,111.8,81.7,111.4Z"/>
    <path class="cls-1" d="M116.1,40.7c-.9-2.3-2.7-4.8-3.9-5.5a22.2,22.2,0,0,0-5.1-1.9,7.2,7.2,0,0,1-4.2-3,9.8,9.8,0,0,0-3.6-3.5,8.8,8.8,0,0,0-5.3-.1c-1.7.5-4.2-.5-5.6-2.2s-3.6-3.3-5.1-3.5a11.5,11.5,0,0,0-5.9,1.5c-1.8,1-4.3,1.5-5.7,1.2l-5.9-1.9a10.5,10.5,0,0,0-6.3,0,27,27,0,0,0-6,4.1c-1.8,1.6-3,4.2-2.8,5.7a14.5,14.5,0,0,1-.6,5.9,34.9,34.9,0,0,1-4.5,7.6c-1.9,2.5-3.6,3.4-3.7,2a10.7,10.7,0,0,1,1.5-5.5,48.7,48.7,0,0,0,2.3-4.3c.3-.8.5-1.4.4-1.3l-5,1c-2.6.5-5.7,2.1-6.9,3.5S32,46.2,32,50.1a50.1,50.1,0,0,0,1.3,11.4,40.9,40.9,0,0,0,5.2,9.8c2.2,3,6.4,8.3,9.3,11.7a71.5,71.5,0,0,1,7.1,9.6c1,1.9,8.1,5.7,15.9,8.5s19.9,3.3,26.9,1,12.5-5.7,12.2-7.7.5-6.3,1.9-9.5A122.5,122.5,0,0,0,116,72.5c1-3.6,1.7-11.3,1.7-17.1S117,43,116.1,40.7Z"/>
  </g>
</svg>
