<svg id="Layer_1" data-name="Layer 1" xmlns="http://www.w3.org/2000/svg" viewBox="0 0 150 150">
  <defs>
    <style>
      .cls-1 {
        fill: #fff;
      }
    </style>
  </defs>
  <title>gd_icons</title>
  <rect width="150" height="150"/>
  <path class="cls-1" d="M49.9,48.2Zm0,0Zm0,0Zm0,0Zm0,0Z"/>
  <path class="cls-1" d="M52.5,27.4Q60.9,22,73.2,22q16.2,0,26.9,7.7c7.2,5.1,10.7,12.7,10.7,22.8,0,6.2-1.5,11.4-4.6,15.6q-2.7,3.9-10.4,9.8l-5.1,3.9a15.2,15.2,0,0,0-5.5,7.5,31.5,31.5,0,0,0-.9,8.4H64.8q.4-12,2.3-16.6t9.6-10.6l5.2-4.1a19.1,19.1,0,0,0,4.2-4.2,14.4,14.4,0,0,0,2.8-8.6,16.6,16.6,0,0,0-3.2-9.9q-3.2-4.4-11.6-4.4T62.4,44.8c-2.3,3.7-.4,7.5-.4,11.4H38.2Q39.1,35.9,52.5,27.4Zm11.9,80H85.8L87.9,128H61.3Z"/>
</svg>
