<svg id="Layer_1" data-name="Layer 1" xmlns="http://www.w3.org/2000/svg" viewBox="0 0 150 150">
  <defs>
    <style>
      .cls-1 {
        fill: #fff;
      }
    </style>
  </defs>
  <title>gd_icons</title>
  <rect width="150" height="150"/>
  <path class="cls-1" d="M49.9,48.2Zm0,0Zm0,0Zm0,0Zm0,0Z"/>
  <path class="cls-1" d="M121.2,51H29.8A7.8,7.8,0,0,0,22,58.8V99.4a7.8,7.8,0,0,0,7.8,7.8H65.5a2.6,2.6,0,0,0,2.3-1.3L73.1,95a2.5,2.5,0,0,1,4.6,0l5.1,10.7a2.6,2.6,0,0,0,2.4,1.5h36.1a7.8,7.8,0,0,0,7.8-7.8V58.8A7.8,7.8,0,0,0,121.2,51ZM51.4,88.2a9.1,9.1,0,1,1,9.1-9.2h0A9.1,9.1,0,0,1,51.4,88.2Zm48.1,0a9.1,9.1,0,1,1,9.1-9.2h0A9.1,9.1,0,0,1,99.6,88.2Z"/>
  <path class="cls-1" d="M129,70.1h.9a3.1,3.1,0,0,1,3.1,3.1h0V87a3.1,3.1,0,0,1-3.1,3.1H129V70.1Z"/>
  <path class="cls-1" d="M22,90.1h-.9A3.1,3.1,0,0,1,18,87V73.1a3.1,3.1,0,0,1,3.1-3.1H22V90.1Z"/>
  <path class="cls-1" d="M65.5,52v-.9A3.1,3.1,0,0,1,68.5,48H82.5a3.1,3.1,0,0,1,3.1,3.1V52H65.5Z"/>
</svg>
