<?xml version="1.0" encoding="utf-8"?>
<!-- Generator: Adobe Illustrator 20.1.0, SVG Export Plug-In . SVG Version: 6.00 Build 0)  -->
<svg version="1.1"
	 id="svg2" inkscape:output_extension="org.inkscape.output.svg.inkscape" inkscape:version="0.46" sodipodi:docname="Two-Edged-Sword.svg" sodipodi:version="0.32" xmlns:cc="http://creativecommons.org/ns#" xmlns:dc="http://purl.org/dc/elements/1.1/" xmlns:inkscape="http://www.inkscape.org/namespaces/inkscape" xmlns:rdf="http://www.w3.org/1999/02/22-rdf-syntax-ns#" xmlns:sodipodi="http://sodipodi.sourceforge.net/DTD/sodipodi-0.dtd" xmlns:svg="http://www.w3.org/2000/svg"
	 xmlns="http://www.w3.org/2000/svg" xmlns:xlink="http://www.w3.org/1999/xlink" x="0px" y="0px" viewBox="0 0 949.4 194.8"
	 style="enable-background:new 0 0 949.4 194.8;" xml:space="preserve">
<style type="text/css">
	.st0{fill:#FFFFFF;}
</style>
<inkscape:perspective  id="perspective10" inkscape:persp3d-origin="372.04724 : 350.78739 : 1" inkscape:vp_x="0 : 526.18109 : 1" inkscape:vp_y="0 : 1000 : 0" inkscape:vp_z="744.09448 : 526.18109 : 1" sodipodi:type="inkscape:persp3d">
	</inkscape:perspective>
<inkscape:perspective  id="perspective2447" inkscape:persp3d-origin="372.04724 : 350.78739 : 1" inkscape:vp_x="0 : 526.18109 : 1" inkscape:vp_y="0 : 1000 : 0" inkscape:vp_z="744.09448 : 526.18109 : 1" sodipodi:type="inkscape:persp3d">
	</inkscape:perspective>
<inkscape:perspective  id="perspective3821" inkscape:persp3d-origin="372.04724 : 350.78739 : 1" inkscape:vp_x="0 : 526.18109 : 1" inkscape:vp_y="0 : 1000 : 0" inkscape:vp_z="744.09448 : 526.18109 : 1" sodipodi:type="inkscape:persp3d">
	</inkscape:perspective>
<inkscape:perspective  id="perspective3890" inkscape:persp3d-origin="372.04724 : 350.78739 : 1" inkscape:vp_x="0 : 526.18109 : 1" inkscape:vp_y="0 : 1000 : 0" inkscape:vp_z="744.09448 : 526.18109 : 1" sodipodi:type="inkscape:persp3d">
	</inkscape:perspective>
<inkscape:perspective  id="perspective4549" inkscape:persp3d-origin="372.04724 : 350.78739 : 1" inkscape:vp_x="0 : 526.18109 : 1" inkscape:vp_y="0 : 1000 : 0" inkscape:vp_z="744.09448 : 526.18109 : 1" sodipodi:type="inkscape:persp3d">
	</inkscape:perspective>
<inkscape:perspective  id="perspective4669" inkscape:persp3d-origin="372.04724 : 350.78739 : 1" inkscape:vp_x="0 : 526.18109 : 1" inkscape:vp_y="0 : 1000 : 0" inkscape:vp_z="744.09448 : 526.18109 : 1" sodipodi:type="inkscape:persp3d">
	</inkscape:perspective>
<inkscape:perspective  id="perspective3230" inkscape:persp3d-origin="372.04724 : 350.78739 : 1" inkscape:vp_x="0 : 526.18109 : 1" inkscape:vp_y="0 : 1000 : 0" inkscape:vp_z="744.09448 : 526.18109 : 1" sodipodi:type="inkscape:persp3d">
	</inkscape:perspective>
<inkscape:perspective  id="perspective3841" inkscape:persp3d-origin="372.04724 : 350.78739 : 1" inkscape:vp_x="0 : 526.18109 : 1" inkscape:vp_y="0 : 1000 : 0" inkscape:vp_z="744.09448 : 526.18109 : 1" sodipodi:type="inkscape:persp3d">
	</inkscape:perspective>
<inkscape:perspective  id="perspective3599" inkscape:persp3d-origin="372.04724 : 350.78739 : 1" inkscape:vp_x="0 : 526.18109 : 1" inkscape:vp_y="0 : 1000 : 0" inkscape:vp_z="744.09448 : 526.18109 : 1" sodipodi:type="inkscape:persp3d">
	</inkscape:perspective>
<path class="st0" d="M948.1,97.6c0.4,0,0.9,0,1.3,0l-1.3-0.2c-0.2-3.8-1.3-21-9-27.9c-10.2-4.9-41.3,9.3-48.2,12.8
	c-0.1-0.2-0.2-0.4-0.4-0.7L813,79.6l0-0.1c0,0,0,0.1,0,0.1L747.2,78l0-0.1c0,0,0,0,0,0.1l-5.1-0.1l0-1.2c0-20.8-6.7-41.6-28.2-71.8
	c-1.2-2-2.2-3.5-3-4.2c-0.2-0.2-0.3-0.4-0.5-0.7l0.2,0.4c-0.3-0.2-0.6-0.3-0.8-0.2l-22.9,18.9C705,35,718,56.5,717.3,75.2
	c-18.4,5.3-26.3,3.1-42.2-2.3l-15.7,0l0-0.2c0,0.1,0,0.2,0,0.2L126,73.6c-61.3,0-85.3,3.2-126,24.3C41.6,119.4,66.9,122,126,122
	l533.5-0.7c0,0,0,0,0,0v0l15.7,0c16.3-5.6,24.7-7.3,41.9-2.5c3.5,19.6-10.6,42.1-30.4,54.9l21.3,21c0.6,0.3,1.6-0.1,2.7-1.3
	c0.1-0.1,0.2-0.2,0.3-0.3c0.1-0.1,0.1-0.1,0.2-0.2l0.2-0.2l1.1-1.4l0.8-1c-0.2,0.3-0.4,0.5-0.5,0.8c0,0,0.6-0.7,1.8-2.4l0,0l0,0
	c0.1-0.1,0.1-0.2,0.2-0.3c0.1-0.1,0.1-0.2,0.2-0.3c0.2-0.2,0.3-0.5,0.5-0.7l0,0l0,0c0.9-1.4,2-3,3.3-4.8c0.2-0.3,0.4-0.7,0.7-1l0,0
	l0,0c0.6-0.9,1.3-1.9,2-3c0,0,0,0,0,0v0c0.4-0.7,0.8-1.3,1.3-2h0v0c2.1-3.3,4-6.6,5.7-9.7h0v0c10.7-19.3,14.4-34.8,14.4-50.2l0-0.4
	l15.2-0.2c0,0,0.1,0.1,0.1,0.1l0-0.1l13.6-0.2l12.5-0.2c0,0,0,0,0,0l0,0L811,115c0.1,0.1,0.1,0.2,0.2,0.2l-0.1-0.3l79-1.3
	c0.1-0.2,0.2-0.3,0.3-0.5c0.2,0.1,0.4,0.2,0.5,0.2c0.1,0.2,0.2,0.3,0.4,0.5l-0.1-0.3c6.9,3.1,25.1,10.4,37.3,12.4
	c2.9,0.6,6,1,9.6,1.2l0.6-1.9c8.3-7.4,9.4-25.6,9.3-27.4C948.1,97.8,948.1,97.7,948.1,97.6z"/>
</svg>
